<?xml version="1.0" encoding="UTF-8"?>
<!DOCTYPE svg PUBLIC "-//W3C//DTD SVG 1.1//EN" "http://www.w3.org/Graphics/SVG/1.1/DTD/svg11.dtd">
<svg xmlns="http://www.w3.org/2000/svg" version="1.1" width="9638px" height="9169px" style="shape-rendering:geometricPrecision; text-rendering:geometricPrecision; image-rendering:optimizeQuality; fill-rule:evenodd; clip-rule:evenodd" xmlns:xlink="http://www.w3.org/1999/xlink">
<g><path style="opacity:0.997" fill="#000000" d="M 3394.5,-0.5 C 3395.17,-0.5 3395.83,-0.5 3396.5,-0.5C 3862.5,281.97 4328.66,564.303 4795,846.5C 4795.21,1328.33 4795.71,1810.17 4796.5,2292C 4796.17,2319.83 4795.83,2347.67 4795.5,2375.5C 4330.68,1587.87 3865.85,800.202 3401,12.5C 3398.57,8.25557 3396.41,3.92223 3394.5,-0.5 Z"/></g>
<g><path style="opacity:0.997" fill="#000000" d="M 6240.5,-0.5 C 6241.17,-0.5 6241.83,-0.5 6242.5,-0.5C 5775.34,791.806 5308.18,1584.14 4841,2376.5C 4840.17,1866.5 4840.33,1356.5 4841.5,846.5C 5308.06,564.392 5774.4,282.059 6240.5,-0.5 Z"/></g>
<g><path style="opacity:0.995" fill="#000000" d="M 3397.5,752.5 C 3397.74,751.903 3398.24,751.57 3399,751.5C 3603.73,875.452 3808.57,999.286 4013.5,1123C 4275.71,1566.59 4537.54,2010.42 4799,2454.5C 4799.67,2678.83 4799.67,2903.17 4799,3127.5C 4331.81,2335.77 3864.64,1544.1 3397.5,752.5 Z"/></g>
<g><path style="opacity:0.995" fill="#000000" d="M 6240.5,751.5 C 6241.38,751.369 6242.04,751.702 6242.5,752.5C 6235,765.5 6227.5,778.5 6220,791.5C 5760.74,1570.37 5301.24,2349.03 4841.5,3127.5C 4841.17,3100 4840.83,3072.5 4840.5,3045C 4841.23,2847.83 4841.73,2650.67 4842,2453.5C 5103.59,2010.66 5364.92,1567.66 5626,1124.5C 5830.98,1000.27 6035.81,875.933 6240.5,751.5 Z"/></g>
<g><path style="opacity:0.997" fill="#000000" d="M -0.5,3027.5 C 287.138,3209.99 574.805,3392.49 862.5,3575C 1303.58,3857.96 1744.75,4140.79 2186,4423.5C 2187.26,4894.83 2187.6,5366.17 2187,5837.5C 1900.31,6080.35 1613.48,6323.02 1326.5,6565.5C 1062.08,6396.21 797.912,6226.54 534,6056.5C 533.286,5389.83 533.786,4723.17 535.5,4056.5C 759.916,4191.12 984.082,4326.12 1208,4461.5C 1209.1,4954.83 1209.94,5448.17 1210.5,5941.5C 1354.42,6037.71 1498.25,6134.04 1642,6230.5C 1642.67,5697.83 1642.67,5165.17 1642,4632.5C 1275.75,4403.96 909.252,4175.79 542.5,3948C 361.6,3641.69 180.6,3335.52 -0.5,3029.5C -0.5,3028.83 -0.5,3028.17 -0.5,3027.5 Z"/></g>
<g><path style="opacity:0.997" fill="#000000" d="M 7842.5,3033.5 C 7844.33,3081.16 7845.16,3129.16 7845,3177.5C 7846.33,3486.83 7847.67,3796.17 7849,4105.5C 7849.67,4255.17 7849.67,4404.83 7849,4554.5C 7663.46,4709.71 7477.63,4864.54 7291.5,5019C 7518.21,5378.92 7745.04,5738.75 7972,6098.5C 7992.73,6080.6 8013.9,6063.27 8035.5,6046.5C 8059.44,6065.44 8082.78,6085.11 8105.5,6105.5C 7932.95,6249.04 7760.45,6392.7 7588,6536.5C 7564.33,6516.83 7540.67,6497.17 7517,6477.5C 7306.09,6108 7094.92,5738.67 6883.5,5369.5C 6858.4,5388.14 6833.56,5407.14 6809,5426.5C 6808.67,5647.17 6808.33,5867.83 6808,6088.5C 6614.31,6247.69 6420.48,6406.69 6226.5,6565.5C 6225.17,5763.83 6225.17,4962.17 6226.5,4160.5C 6420.17,3997.83 6613.83,3835.17 6807.5,3672.5C 6808.33,4215.83 6808.83,4759.17 6809,5302.5C 6990.26,5169.79 7171.42,5036.96 7352.5,4904C 7349.32,4439.54 7346.48,3975.04 7344,3510.5C 7510.37,3351.63 7676.53,3192.63 7842.5,3033.5 Z"/></g>
<g><path style="opacity:0.991" fill="#000000" d="M 4813.5,3161.5 C 4817.46,3161.09 4821.13,3161.92 4824.5,3164C 4830.74,3169.57 4836.24,3175.74 4841,3182.5C 4888.04,3257.95 4917.04,3339.95 4928,3428.5C 4930.89,3455.64 4928.55,3482.31 4921,3508.5C 4908.48,3542.03 4884.31,3560.53 4848.5,3564C 4809.6,3566.62 4773.26,3558.29 4739.5,3539C 4712.65,3519.81 4697.81,3493.64 4695,3460.5C 4693.14,3429.83 4696.81,3399.83 4706,3370.5C 4725.3,3312.24 4751.3,3257.24 4784,3205.5C 4793.6,3190.63 4803.43,3175.97 4813.5,3161.5 Z"/></g>
<g><path style="opacity:0.995" fill="#000000" d="M 2787.5,3575.5 C 2788.55,3575.35 2789.55,3575.52 2790.5,3576C 2915.5,3678.33 3040.5,3780.67 3165.5,3883C 3038.96,3993.21 2912.13,4103.04 2785,4212.5C 2658.07,4108.62 2531.24,4004.62 2404.5,3900.5C 2406.32,3898.18 2408.32,3896.02 2410.5,3894C 2536.65,3788.34 2662.32,3682.18 2787.5,3575.5 Z"/></g>
<g><path style="opacity:0.996" fill="#000000" d="M 2779.5,4416.5 C 2780.92,4416.71 2782.26,4417.21 2783.5,4418C 2867.83,4489.83 2952.17,4561.67 3036.5,4633.5C 3037.33,5102.17 3037.83,5570.83 3038,6039.5C 3116.17,6105 3194.33,6170.5 3272.5,6236C 3141.33,6345.83 3010.17,6455.67 2879,6565.5C 2793.85,6492.93 2708.52,6420.6 2623,6348.5C 2617.9,5889.85 2613.23,5431.19 2609,4972.5C 2526.5,4904 2444,4835.5 2361.5,4767C 2501.02,4650.3 2640.36,4533.47 2779.5,4416.5 Z"/></g>
<g><path style="opacity:0.997" fill="#000000" d="M 9637.5,6264.5 C 9637.5,6265.17 9637.5,6265.83 9637.5,6266.5C 9535.16,6364.67 9432.66,6462.67 9330,6560.5C 9326.57,6558.74 9323.4,6556.57 9320.5,6554C 9208.59,6459.47 9096.43,6365.31 8984,6271.5C 8871.36,6369.3 8758.86,6467.3 8646.5,6565.5C 8503.85,6447.36 8361.35,6329.02 8219,6210.5C 8218.33,5830.17 8218.33,5449.83 8219,5069.5C 8355.83,4954 8492.67,4838.5 8629.5,4723C 8744.57,4623.38 8859.74,4523.88 8975,4424.5C 9117.33,4535.5 9259.67,4646.5 9402,4757.5C 9402.33,5193.17 9402.67,5628.83 9403,6064.5C 9481.04,6131.38 9559.21,6198.04 9637.5,6264.5 Z M 8764.5,4736.5 C 8873.5,4828.66 8982.67,4920.66 9092,5012.5C 9092.67,5426.17 9092.67,5839.83 9092,6253.5C 8982.71,6161.88 8873.71,6069.88 8765,5977.5C 8764.5,5563.83 8764.33,5150.17 8764.5,4736.5 Z"/></g>
<g><path style="opacity:0.996" fill="#000000" d="M 4349.5,4429.5 C 4351.31,4429.49 4352.98,4429.99 4354.5,4431C 4463.05,4520.39 4571.71,4609.55 4680.5,4698.5C 4564.15,4797.42 4447.32,4895.76 4330,4993.5C 4241.88,4919.05 4154.05,4844.22 4066.5,4769C 4065.09,4768.68 4063.76,4769.02 4062.5,4770C 4043.67,4787.5 4024.83,4805 4006,4822.5C 4005.83,5294.17 4005.33,5765.83 4004.5,6237.5C 3862.5,6353.83 3720.5,6470.17 3578.5,6586.5C 3577.67,6082.5 3577.17,5578.5 3577,5074.5C 3512.46,5020.29 3447.63,4966.46 3382.5,4913C 3380.65,4911.32 3378.98,4909.48 3377.5,4907.5C 3519.51,4786.15 3661.85,4665.15 3804.5,4544.5C 3872.86,4602.7 3941.36,4660.7 4010,4718.5C 4123.64,4622.69 4236.81,4526.36 4349.5,4429.5 Z"/></g>
<g><path style="opacity:0.997" fill="#000000" d="M 5450.5,4429.5 C 5452.31,4429.49 5453.98,4429.99 5455.5,4431C 5596.67,4548.17 5737.83,4665.33 5879,4782.5C 5879.67,5162.17 5879.67,5541.83 5879,5921.5C 5623.54,6136.62 5368.37,6352.12 5113.5,6568C 5108.98,6570.36 5104.98,6569.69 5101.5,6566C 4961.09,6449.05 4820.59,6332.21 4680,6215.5C 4679.33,5836.17 4679.33,5456.83 4680,5077.5C 4937.32,4862.01 5194.15,4646.01 5450.5,4429.5 Z M 5107.5,4722.5 C 5222.4,4817.89 5336.9,4913.89 5451,5010.5C 5451.67,5431.17 5451.67,5851.83 5451,6272.5C 5336.67,6177.83 5222.33,6083.17 5108,5988.5C 5107.5,5566.5 5107.33,5144.5 5107.5,4722.5 Z"/></g>
<g><path style="opacity:0.98" fill="#000000" d="M 286.5,6975.5 C 287.552,6975.35 288.552,6975.52 289.5,6976C 272.997,7007.5 257.497,7039.34 243,7071.5C 290.414,7039.54 337.914,7007.71 385.5,6976C 386.332,6975.31 386.998,6975.48 387.5,6976.5C 362.376,7013.91 337.376,7051.41 312.5,7089C 1814.5,7089.17 3316.5,7089.33 4818.5,7089.5C 6320.5,7089.33 7822.5,7089.17 9324.5,7089C 9299.62,7051.41 9274.62,7013.91 9249.5,6976.5C 9250,6975.48 9250.67,6975.31 9251.5,6976C 9299.09,7007.71 9346.59,7039.54 9394,7071.5C 9379.5,7039.34 9364,7007.5 9347.5,6976C 9348,6975.83 9348.5,6975.67 9349,6975.5C 9439.09,7024.46 9528.93,7073.79 9618.5,7123.5C 9528.89,7172.89 9439.06,7221.89 9349,7270.5C 9348.5,7270.33 9348,7270.17 9347.5,7270C 9363.29,7238.91 9378.96,7207.74 9394.5,7176.5C 9394.17,7176.17 9393.83,7175.83 9393.5,7175.5C 9346.01,7207.41 9298.34,7239.08 9250.5,7270.5C 9250.17,7270.17 9249.83,7269.83 9249.5,7269.5C 9274.17,7232.5 9298.83,7195.5 9323.5,7158.5C 7821.83,7158.17 6320.17,7157.83 4818.5,7157.5C 3316.83,7157.83 1815.17,7158.17 313.5,7158.5C 338.167,7195.5 362.833,7232.5 387.5,7269.5C 386.21,7270.41 384.877,7270.24 383.5,7269C 336.969,7237.64 290.303,7206.47 243.5,7175.5C 243.167,7175.83 242.833,7176.17 242.5,7176.5C 258.039,7207.74 273.705,7238.91 289.5,7270C 289,7270.17 288.5,7270.33 288,7270.5C 197.942,7221.89 108.109,7172.89 18.5,7123.5C 107.86,7074.15 197.194,7024.82 286.5,6975.5 Z"/></g>
<g><path style="opacity:0.99" fill="#000000" d="M 8524.5,7535.5 C 8525.92,7535.71 8527.26,7536.21 8528.5,7537C 8596,7592.34 8663.34,7647.84 8730.5,7703.5C 8661.51,7763.66 8592.34,7823.66 8523,7883.5C 8453.52,7826.85 8384.35,7769.85 8315.5,7712.5C 8385.01,7653.25 8454.68,7594.25 8524.5,7535.5 Z"/></g>
<g><path style="opacity:0.995" fill="#000000" d="M 7746.5,9168.5 C 7745.5,9168.5 7744.5,9168.5 7743.5,9168.5C 7649.92,9091.6 7556.59,9014.26 7463.5,8936.5C 7462.33,8742.5 7462.17,8548.5 7463,8354.5C 7540.46,8290.04 7617.63,8225.21 7694.5,8160C 7605.5,8085.5 7516.5,8011 7427.5,7936.5C 7490.88,7882.29 7554.71,7828.62 7619,7775.5C 7785.17,7914.59 7951.17,8053.92 8117,8193.5C 8117.67,8414.83 8117.67,8636.17 8117,8857.5C 7993.31,8961.03 7869.81,9064.7 7746.5,9168.5 Z M 7696.5,8161.5 C 7759.13,8213.62 7821.63,8265.96 7884,8318.5C 7884.67,8534.5 7884.67,8750.5 7884,8966.5C 7821.67,8914.83 7759.33,8863.17 7697,8811.5C 7696.5,8594.83 7696.33,8378.17 7696.5,8161.5 Z"/></g>
<g><path style="opacity:0.994" fill="#000000" d="M 450.5,9168.5 C 449.833,9168.5 449.167,9168.5 448.5,9168.5C 371.231,9104.41 294.065,9040.07 217,8975.5C 216.5,8720.83 216.333,8466.17 216.5,8211.5C 150.499,8211.67 84.4992,8211.5 18.5,8211C 162.377,8092.8 305.377,7973.46 447.5,7853C 448.448,7852.52 449.448,7852.35 450.5,7852.5C 450.5,7902.17 450.5,7951.83 450.5,8001.5C 532.501,8001.33 614.501,8001.5 696.5,8002C 615.5,8071.67 534.5,8141.33 453.5,8211C 452.552,8211.48 451.552,8211.65 450.5,8211.5C 450.167,8423.5 450.5,8635.5 451.5,8847.5C 513.02,8900.19 574.686,8952.69 636.5,9005C 574.603,9059.74 512.603,9114.24 450.5,9168.5 Z"/></g>
<g><path style="opacity:0.994" fill="#000000" d="M 1984.5,9168.5 C 1983.5,9168.5 1982.5,9168.5 1981.5,9168.5C 1904.68,9103.83 1827.51,9039.49 1750,8975.5C 1749.5,8720.83 1749.33,8466.17 1749.5,8211.5C 1683.5,8211.67 1617.5,8211.5 1551.5,8211C 1615.5,8158.33 1679.5,8105.67 1743.5,8053C 1823.02,7985.98 1902.69,7919.15 1982.5,7852.5C 1983.5,7902.16 1983.83,7951.83 1983.5,8001.5C 2065.83,8001.33 2148.17,8001.5 2230.5,8002C 2148.87,8071.29 2067.54,8140.96 1986.5,8211C 1985.55,8211.48 1984.55,8211.65 1983.5,8211.5C 1983.33,8423.17 1983.5,8634.83 1984,8846.5C 2046.15,8899.15 2107.99,8952.15 2169.5,9005.5C 2107.52,9059.48 2045.85,9113.82 1984.5,9168.5 Z"/></g>
<g><path style="opacity:0.994" fill="#000000" d="M 2580.5,9168.5 C 2579.83,9168.5 2579.17,9168.5 2578.5,9168.5C 2501.23,9104.41 2424.06,9040.07 2347,8975.5C 2346.5,8720.83 2346.33,8466.17 2346.5,8211.5C 2280.5,8211.67 2214.5,8211.5 2148.5,8211C 2292.38,8092.8 2435.38,7973.46 2577.5,7853C 2578.45,7852.52 2579.45,7852.35 2580.5,7852.5C 2580.5,7902.17 2580.5,7951.83 2580.5,8001.5C 2662.5,8001.33 2744.5,8001.5 2826.5,8002C 2745.5,8071.67 2664.5,8141.33 2583.5,8211C 2582.55,8211.48 2581.55,8211.65 2580.5,8211.5C 2580.17,8423.5 2580.5,8635.5 2581.5,8847.5C 2643.17,8900 2704.83,8952.5 2766.5,9005C 2704.6,9059.74 2642.6,9114.24 2580.5,9168.5 Z"/></g>
<g><path style="opacity:0.994" fill="#000000" d="M 6145.5,9168.5 C 6144.5,9168.5 6143.5,9168.5 6142.5,9168.5C 6065.68,9103.83 5988.51,9039.49 5911,8975.5C 5910.5,8720.83 5910.33,8466.17 5910.5,8211.5C 5844.5,8211.67 5778.5,8211.5 5712.5,8211C 5856.91,8092.45 6000.57,7972.95 6143.5,7852.5C 6144.5,7902.16 6144.83,7951.83 6144.5,8001.5C 6226.83,8001.33 6309.17,8001.5 6391.5,8002C 6309.87,8071.29 6228.54,8140.96 6147.5,8211C 6146.55,8211.48 6145.55,8211.65 6144.5,8211.5C 6144.33,8423.17 6144.5,8634.83 6145,8846.5C 6207.15,8899.15 6268.99,8952.15 6330.5,9005.5C 6268.52,9059.48 6206.85,9113.82 6145.5,9168.5 Z"/></g>
<g><path style="opacity:0.995" fill="#000000" d="M 6760.5,9168.5 C 6759.5,9168.5 6758.5,9168.5 6757.5,9168.5C 6680.82,9103.65 6603.65,9039.32 6526,8975.5C 6525.67,8736.17 6525.33,8496.83 6525,8257.5C 6491.83,8229.67 6458.67,8201.83 6425.5,8174C 6480.98,8126.43 6536.65,8079.1 6592.5,8032C 6602.34,8024.15 6612.18,8016.32 6622,8008.5C 6667.95,8047.45 6713.62,8086.78 6759,8126.5C 6759.33,8366.5 6759.67,8606.5 6760,8846.5C 6819.31,8896.31 6878.48,8946.31 6937.5,8996.5C 6938.33,8725.83 6938.83,8455.17 6939,8184.5C 7016.04,8119.12 7093.37,8054.12 7171,7989.5C 7171.33,8291.5 7171.67,8593.5 7172,8895.5C 7214.02,8931.69 7256.19,8967.69 7298.5,9003.5C 7299.58,9004.36 7299.75,9005.36 7299,9006.5C 7243.62,9060.38 7187.79,9113.71 7131.5,9166.5C 7068.76,9113.71 7005.93,9061.05 6943,9008.5C 6882,9061.73 6821.17,9115.07 6760.5,9168.5 Z"/></g>
<g><path style="opacity:0.993" fill="#000000" d="M 8519.5,7994.5 C 8520.55,7994.35 8521.55,7994.52 8522.5,7995C 8568.37,8034.54 8614.54,8073.71 8661,8112.5C 8661.33,8368.17 8661.67,8623.83 8662,8879.5C 8704.5,8915.33 8747,8951.17 8789.5,8987C 8717.69,9046.65 8646.02,9106.48 8574.5,9166.5C 8528.15,9126.98 8481.65,9087.65 8435,9048.5C 8431.87,8798.18 8429.2,8547.85 8427,8297.5C 8381.7,8260.7 8336.87,8223.37 8292.5,8185.5C 8367.89,8121.43 8443.56,8057.77 8519.5,7994.5 Z"/></g>
<g><path style="opacity:0.994" fill="#000000" d="M 1012.5,9168.5 C 1011.83,9168.5 1011.17,9168.5 1010.5,9168.5C 933.19,9104.03 855.69,9039.7 778,8975.5C 777.333,8767.83 777.333,8560.17 778,8352.5C 911.01,8241.5 1042.84,8129 1173.5,8015C 1179.26,8010.37 1185.09,8005.87 1191,8001.5C 1268.66,8061.82 1346.32,8122.15 1424,8182.5C 1424.17,8420.5 1424.67,8658.5 1425.5,8896.5C 1467.98,8932.48 1510.31,8968.65 1552.5,9005C 1496.64,9059.2 1440.47,9113.03 1384,9166.5C 1321.07,9113.95 1258.24,9061.29 1195.5,9008.5C 1134.45,9061.88 1073.45,9115.22 1012.5,9168.5 Z M 1011.5,8170.5 C 1071.13,8220.29 1130.63,8270.29 1190,8320.5C 1190.67,8545.83 1190.67,8771.17 1190,8996.5C 1130.67,8946.5 1071.33,8896.5 1012,8846.5C 1011.5,8621.17 1011.33,8395.83 1011.5,8170.5 Z"/></g>
<g><path style="opacity:0.995" fill="#000000" d="M 3144.5,9168.5 C 3143.17,9168.5 3141.83,9168.5 3140.5,9168.5C 3063.54,9104.55 2986.54,9040.55 2909.5,8976.5C 2908.33,8769.17 2908.17,8561.83 2909,8354.5C 3048.76,8236.07 3189.09,8118.4 3330,8001.5C 3408.24,8065.07 3485.91,8129.4 3563,8194.5C 3563.67,8401.17 3563.67,8607.83 3563,8814.5C 3423.6,8932.74 3284.1,9050.74 3144.5,9168.5 Z M 3141.5,8161.5 C 3204.13,8213.62 3266.63,8265.96 3329,8318.5C 3329.67,8547.5 3329.67,8776.5 3329,9005.5C 3266.74,8954.29 3204.57,8902.95 3142.5,8851.5C 3141.5,8621.5 3141.17,8391.5 3141.5,8161.5 Z"/></g>
<g><path style="opacity:0.995" fill="#000000" d="M 4056.5,9168.5 C 4054.83,9168.5 4053.17,9168.5 4051.5,9168.5C 3974.54,9104.55 3897.54,9040.55 3820.5,8976.5C 3819.33,8769.17 3819.17,8561.83 3820,8354.5C 3959.76,8236.07 4100.09,8118.4 4241,8001.5C 4318.93,8064.92 4396.43,8128.92 4473.5,8193.5C 4474.83,8400.83 4474.83,8608.17 4473.5,8815.5C 4334.16,8932.84 4195.16,9050.51 4056.5,9168.5 Z M 4052.5,8161.5 C 4115.13,8213.62 4177.63,8265.96 4240,8318.5C 4240.67,8547.5 4240.67,8776.5 4240,9005.5C 4177.98,8953.98 4115.81,8902.64 4053.5,8851.5C 4052.5,8621.5 4052.17,8391.5 4052.5,8161.5 Z"/></g>
<g><path style="opacity:0.993" fill="#000000" d="M 5261.5,8001.5 C 5263.31,8001.49 5264.98,8001.99 5266.5,8003C 5367.88,8086.05 5469.54,8168.71 5571.5,8251C 5572.5,8251.67 5573.5,8251.67 5574.5,8251C 5595.37,8232.46 5616.54,8214.29 5638,8196.5C 5651.5,8206.67 5665,8216.83 5678.5,8227C 5581.8,8312.04 5484.8,8396.71 5387.5,8481C 5454.57,8535.95 5521.74,8590.79 5589,8645.5C 5589.67,8721.5 5589.67,8797.5 5589,8873.5C 5470.15,8969.85 5352.31,9067.51 5235.5,9166.5C 5127.02,9078.52 5018.69,8990.36 4910.5,8902C 4908.37,8902.4 4906.37,8903.4 4904.5,8905C 4891.33,8916.83 4878.17,8928.67 4865,8940.5C 4851.83,8929.33 4839.33,8917.5 4827.5,8905C 4921.77,8822.74 5016.1,8740.4 5110.5,8658C 5050.33,8607.83 4990.17,8557.67 4930,8507.5C 4929.33,8431.83 4929.33,8356.17 4930,8280.5C 5040.48,8187.36 5150.98,8094.36 5261.5,8001.5 Z M 5147.5,8219.5 C 5226.67,8285.17 5306,8350.67 5385.5,8416C 5349.33,8447.5 5313.17,8479 5277,8510.5C 5233.19,8473.26 5189.19,8436.26 5145,8399.5C 5145.53,8339.51 5146.37,8279.51 5147.5,8219.5 Z M 5213.5,8635.5 C 5266.46,8677.95 5319.29,8720.62 5372,8763.5C 5372.67,8830.5 5372.67,8897.5 5372,8964.5C 5278.59,8890.21 5185.09,8816.05 5091.5,8742C 5132.43,8706.72 5173.09,8671.22 5213.5,8635.5 Z"/></g>
<g><path style="opacity:0.993" fill="#000000" d="M 9200.5,9168.5 C 9198.83,9168.5 9197.17,9168.5 9195.5,9168.5C 9118.23,9104.41 9041.06,9040.07 8964,8975.5C 8963.33,8768.5 8963.33,8561.5 8964,8354.5C 9104.34,8236.82 9244.68,8119.15 9385,8001.5C 9462.95,8065.11 9540.61,8129.11 9618,8193.5C 9618.67,8400.83 9618.67,8608.17 9618,8815.5C 9478.35,8932.66 9339.18,9050.32 9200.5,9168.5 Z M 9197.5,8161.5 C 9259.47,8213.49 9321.47,8265.49 9383.5,8317.5C 9384.67,8546.83 9384.83,8776.17 9384,9005.5C 9322,8954.17 9260,8902.83 9198,8851.5C 9197.5,8621.5 9197.33,8391.5 9197.5,8161.5 Z"/></g>
</svg>
